<?xml version='1.0' encoding='UTF-8' standalone='no'?>
<svg width="284pt" xmlns:xlink="http://www.w3.org/1999/xlink" xmlns="http://www.w3.org/2000/svg" viewBox="0 0 284 211" height="211pt">
 <title>gl2ps_renderer figure</title>
 <desc>
Creator: GL2PS 1.4.2, (C) 1999-2020 C. Geuzaine
For: Octave
CreationDate: Wed Aug 18 15:00:27 2021
</desc>
 <defs/>
 <polygon fill="#ffffff" points="0,0 284,0 284,211 0,211"/>
 <g>
  <polygon shape-rendering="crispEdges" fill="#ffffff" points="0,211 284,211 284,0 0,0"/>
  <clipPath id="cp00284211">
   <polygon points="0,211 284,211 284,0 0,0"/>
  </clipPath>
  <g clip-path="url(#cp00284211)">
   <polygon shape-rendering="crispEdges" fill="#ffffff" points="37.0209,188.278 257.723,188.278 257.723,15.8661 37.0209,15.8661"/>
   <polyline stroke-linecap="butt" stroke-linejoin="miter" stroke-width="0.5" fill="none" stroke="#262626" points="37.0209,188.278 37.0209,186.066"/>
   <polyline stroke-linecap="butt" stroke-linejoin="miter" stroke-width="0.5" fill="none" stroke="#262626" points="37.0209,15.8661 37.0209,18.0784"/>
   <polyline stroke-linecap="butt" stroke-linejoin="miter" stroke-width="0.5" fill="none" stroke="#262626" points="92.1964,188.278 92.1964,186.066"/>
   <polyline stroke-linecap="butt" stroke-linejoin="miter" stroke-width="0.5" fill="none" stroke="#262626" points="92.1964,15.8661 92.1964,18.0784"/>
   <polyline stroke-linecap="butt" stroke-linejoin="miter" stroke-width="0.5" fill="none" stroke="#262626" points="147.372,188.278 147.372,186.066"/>
   <polyline stroke-linecap="butt" stroke-linejoin="miter" stroke-width="0.5" fill="none" stroke="#262626" points="147.372,15.8661 147.372,18.0784"/>
   <polyline stroke-linecap="butt" stroke-linejoin="miter" stroke-width="0.5" fill="none" stroke="#262626" points="202.547,188.278 202.547,186.066"/>
   <polyline stroke-linecap="butt" stroke-linejoin="miter" stroke-width="0.5" fill="none" stroke="#262626" points="202.547,15.8661 202.547,18.0784"/>
   <polyline stroke-linecap="butt" stroke-linejoin="miter" stroke-width="0.5" fill="none" stroke="#262626" points="257.723,188.278 257.723,186.066"/>
   <polyline stroke-linecap="butt" stroke-linejoin="miter" stroke-width="0.5" fill="none" stroke="#262626" points="257.723,15.8661 257.723,18.0784"/>
   <text font-style="normal" font-weight="normal" transform="translate(32.5209,203.796) rotate(-0,4.5,-8)" font-size="10" font-family="FreeSans" xml:space="preserve">
    <tspan x="0 3 " y="-0" fill="rgb(38,38,38)">-5</tspan>
   </text>
   <text font-style="normal" font-weight="normal" transform="translate(89.1964,203.796) rotate(-0,3,-8)" font-size="10" font-family="FreeSans" xml:space="preserve">
    <tspan x="0 " y="-0" fill="rgb(38,38,38)">0</tspan>
   </text>
   <text font-style="normal" font-weight="normal" transform="translate(144.372,203.796) rotate(-0,3,-8)" font-size="10" font-family="FreeSans" xml:space="preserve">
    <tspan x="0 " y="-0" fill="rgb(38,38,38)">5</tspan>
   </text>
   <text font-style="normal" font-weight="normal" transform="translate(196.547,203.796) rotate(-0,6,-8)" font-size="10" font-family="FreeSans" xml:space="preserve">
    <tspan x="0 6 " y="-0" fill="rgb(38,38,38)">10</tspan>
   </text>
   <text font-style="normal" font-weight="normal" transform="translate(251.723,203.796) rotate(-0,6,-8)" font-size="10" font-family="FreeSans" xml:space="preserve">
    <tspan x="0 6 " y="-0" fill="rgb(38,38,38)">15</tspan>
   </text>
   <polyline stroke-linecap="butt" stroke-linejoin="miter" stroke-width="0.5" fill="none" stroke="#262626" points="37.0209,188.278 39.225,188.278"/>
   <polyline stroke-linecap="butt" stroke-linejoin="miter" stroke-width="0.5" fill="none" stroke="#262626" points="257.723,188.278 255.519,188.278"/>
   <polyline stroke-linecap="butt" stroke-linejoin="miter" stroke-width="0.5" fill="none" stroke="#262626" points="37.0209,153.796 39.225,153.796"/>
   <polyline stroke-linecap="butt" stroke-linejoin="miter" stroke-width="0.5" fill="none" stroke="#262626" points="257.723,153.796 255.519,153.796"/>
   <polyline stroke-linecap="butt" stroke-linejoin="miter" stroke-width="0.5" fill="none" stroke="#262626" points="37.0209,119.313 39.225,119.313"/>
   <polyline stroke-linecap="butt" stroke-linejoin="miter" stroke-width="0.5" fill="none" stroke="#262626" points="257.723,119.313 255.519,119.313"/>
   <polyline stroke-linecap="butt" stroke-linejoin="miter" stroke-width="0.5" fill="none" stroke="#262626" points="37.0209,84.8308 39.225,84.8308"/>
   <polyline stroke-linecap="butt" stroke-linejoin="miter" stroke-width="0.5" fill="none" stroke="#262626" points="257.723,84.8308 255.519,84.8308"/>
   <polyline stroke-linecap="butt" stroke-linejoin="miter" stroke-width="0.5" fill="none" stroke="#262626" points="37.0209,50.3485 39.225,50.3485"/>
   <polyline stroke-linecap="butt" stroke-linejoin="miter" stroke-width="0.5" fill="none" stroke="#262626" points="257.723,50.3485 255.519,50.3485"/>
   <polyline stroke-linecap="butt" stroke-linejoin="miter" stroke-width="0.5" fill="none" stroke="#262626" points="37.0209,15.8661 39.225,15.8661"/>
   <polyline stroke-linecap="butt" stroke-linejoin="miter" stroke-width="0.5" fill="none" stroke="#262626" points="257.723,15.8661 255.519,15.8661"/>
   <text font-style="normal" font-weight="normal" transform="translate(17.0277,192.278) rotate(-0,15,-4)" font-size="10" font-family="FreeSans" xml:space="preserve">
    <tspan x="0 3 9 " y="-0" fill="rgb(38,38,38)">-15</tspan>
   </text>
   <text font-style="normal" font-weight="normal" transform="translate(17.0277,157.796) rotate(-0,15,-4)" font-size="10" font-family="FreeSans" xml:space="preserve">
    <tspan x="0 3 9 " y="-0" fill="rgb(38,38,38)">-10</tspan>
   </text>
   <text font-style="normal" font-weight="normal" transform="translate(23.0277,123.313) rotate(-0,9,-4)" font-size="10" font-family="FreeSans" xml:space="preserve">
    <tspan x="0 3 " y="-0" fill="rgb(38,38,38)">-5</tspan>
   </text>
   <text font-style="normal" font-weight="normal" transform="translate(26.0277,88.8308) rotate(-0,6,-4)" font-size="10" font-family="FreeSans" xml:space="preserve">
    <tspan x="0 " y="-0" fill="rgb(38,38,38)">0</tspan>
   </text>
   <text font-style="normal" font-weight="normal" transform="translate(26.0277,54.3485) rotate(-0,6,-4)" font-size="10" font-family="FreeSans" xml:space="preserve">
    <tspan x="0 " y="-0" fill="rgb(38,38,38)">5</tspan>
   </text>
   <text font-style="normal" font-weight="normal" transform="translate(20.0277,19.8661) rotate(-0,12,-4)" font-size="10" font-family="FreeSans" xml:space="preserve">
    <tspan x="0 6 " y="-0" fill="rgb(38,38,38)">10</tspan>
   </text>
   <polyline stroke-linecap="square" stroke-linejoin="miter" stroke-width="0.5" stroke-dasharray="16,0" fill="none" stroke="#262626" points="37.0209,188.278 257.723,188.278"/>
   <polyline stroke-linecap="square" stroke-linejoin="miter" stroke-width="0.5" stroke-dasharray="16,0" fill="none" stroke="#262626" points="37.0209,15.8661 257.723,15.8661"/>
   <polyline stroke-linecap="square" stroke-linejoin="miter" stroke-width="0.5" stroke-dasharray="16,0" fill="none" stroke="#262626" points="37.0209,188.278 37.0209,15.8661"/>
   <polyline stroke-linecap="square" stroke-linejoin="miter" stroke-width="0.5" stroke-dasharray="16,0" fill="none" stroke="#262626" points="257.723,188.278 257.723,15.8661"/>
   <polyline stroke-linecap="butt" stroke-linejoin="round" stroke-width="0.5" fill="none" stroke="#0071bc" points="59.0911,50.3485 60.986,55.4024 62.8809,60.4189 64.7758,65.3606 66.6708,70.1902 68.5657,74.8702 70.4606,79.3632 72.3555,83.6318 74.2504,87.6388 76.1453,91.3465 78.0402,94.7178 79.9352,97.7151 81.8301,100.301 83.725,102.438 85.6199,104.09 87.5148,105.217 89.4097,105.784 91.3046,105.753 93.1995,105.089 95.0945,103.823 96.9894,102.044 98.8843,99.8451 100.779,97.3179 102.674,94.5547 104.569,91.6473 106.464,88.6881 108.359,85.769 110.254,82.9821 112.149,80.4196 114.044,78.1735 115.939,76.3199 117.833,74.8433 119.728,73.6955 121.623,72.8287 123.518,72.1946 125.413,71.7453 127.308,71.4327 129.203,71.2088 131.098,71.0256 132.993,70.8349 134.888,70.5887 136.783,70.2389 138.677,69.7376 140.572,69.0367 142.467,68.0881 144.362,66.8437 146.257,65.2556 148.152,63.2769 150.047,60.9094 151.942,58.2155 153.837,55.2616 155.732,52.114 157.627,48.8392 159.522,45.5035 161.416,42.1732 163.311,38.9149 165.206,35.7947 167.101,32.8792 168.996,30.2347 170.891,27.9222 172.786,25.9581 174.681,24.3368 176.576,23.0526 178.471,22.0996 180.366,21.4722 182.261,21.1645 184.155,21.1708 186.05,21.4853 187.945,22.1023 189.84,23.016 191.735,24.2206 193.63,25.7104 195.525,27.4796 197.42,29.5224 199.315,31.8331 201.21,34.4059 203.105,37.2351 204.999,40.3148 206.894,43.6394 208.789,47.2029 210.684,50.9998 212.579,55.0242 214.474,59.2703 216.369,63.729 218.264,68.3879 220.159,73.2347 222.054,78.2567 223.949,83.4415 225.844,88.7765 227.738,94.2491 229.633,99.847 231.528,105.558 233.423,111.368 235.318,117.267 237.213,123.24 239.108,129.276 241.003,135.362 242.898,141.486 244.793,147.634 246.688,153.796"/>
   <polyline stroke-linecap="round" stroke-linejoin="round" stroke-width="0.5" fill="none" stroke="#d85218" points="62.0911,50.3485 61.5182,52.1118 60.0182,53.2016 58.1641,53.2016 56.6641,52.1118 56.0911,50.3485 56.6641,48.5851 58.1641,47.4953 60.0182,47.4953 61.5182,48.5851 62.0911,50.3485"/>
   <polyline stroke-linecap="round" stroke-linejoin="round" stroke-width="0.5" fill="none" stroke="#d85218" points="95.1964,105.52 94.6234,107.284 93.1234,108.373 91.2693,108.373 89.7693,107.284 89.1964,105.52 89.7693,103.757 91.2693,102.667 93.1234,102.667 94.6234,103.757 95.1964,105.52"/>
   <polyline stroke-linecap="round" stroke-linejoin="round" stroke-width="0.5" fill="none" stroke="#d85218" points="117.267,77.9344 116.694,79.6977 115.194,80.7875 113.339,80.7875 111.839,79.6977 111.267,77.9344 111.839,76.171 113.339,75.0812 115.194,75.0812 116.694,76.171 117.267,77.9344"/>
   <polyline stroke-linecap="round" stroke-linejoin="round" stroke-width="0.5" fill="none" stroke="#d85218" points="150.372,64.1414 149.799,65.9048 148.299,66.9946 146.445,66.9946 144.945,65.9048 144.372,64.1414 144.945,62.3781 146.445,61.2883 148.299,61.2883 149.799,62.3781 150.372,64.1414"/>
   <polyline stroke-linecap="round" stroke-linejoin="round" stroke-width="0.5" fill="none" stroke="#d85218" points="172.442,29.6591 171.869,31.4224 170.369,32.5122 168.515,32.5122 167.015,31.4224 166.442,29.6591 167.015,27.8957 168.515,26.8059 170.369,26.8059 171.869,27.8957 172.442,29.6591"/>
   <polyline stroke-linecap="round" stroke-linejoin="round" stroke-width="0.5" fill="none" stroke="#d85218" points="216.582,57.2449 216.009,59.0083 214.509,60.0981 212.655,60.0981 211.155,59.0083 210.582,57.2449 211.155,55.4816 212.655,54.3918 214.509,54.3918 216.009,55.4816 216.582,57.2449"/>
   <polyline stroke-linecap="round" stroke-linejoin="round" stroke-width="0.5" fill="none" stroke="#d85218" points="249.688,153.796 249.115,155.559 247.615,156.649 245.761,156.649 244.261,155.559 243.688,153.796 244.261,152.032 245.761,150.942 247.615,150.942 249.115,152.032 249.688,153.796"/>
  </g>
  <clipPath id="cp00284211">
   <polygon points="0,211 284,211 284,0 0,0"/>
  </clipPath>
  <g clip-path="url(#cp00284211)">
   <polygon shape-rendering="crispEdges" fill="#ffffff" points="48.8197,176.479 174.015,176.479 174.015,134.004 48.8197,134.004"/>
   <polyline stroke-linecap="square" stroke-linejoin="miter" stroke-width="0.5" stroke-dasharray="16,0" fill="none" stroke="#262626" points="48.8197,176.479 174.015,176.479"/>
   <polyline stroke-linecap="square" stroke-linejoin="miter" stroke-width="0.5" stroke-dasharray="16,0" fill="none" stroke="#262626" points="48.8197,134.004 174.015,134.004"/>
   <polyline stroke-linecap="square" stroke-linejoin="miter" stroke-width="0.5" stroke-dasharray="16,0" fill="none" stroke="#262626" points="48.8197,176.479 48.8197,134.004"/>
   <polyline stroke-linecap="square" stroke-linejoin="miter" stroke-width="0.5" stroke-dasharray="16,0" fill="none" stroke="#262626" points="174.015,176.479 174.015,134.004"/>
   <polyline stroke-linecap="butt" stroke-linejoin="round" stroke-width="0.5" fill="none" stroke="#0071bc" points="54.719,146.097 84.2158,146.097"/>
   <text font-style="normal" font-weight="normal" transform="translate(90.1152,151.097) rotate(-0,-0,-5)" font-size="9" font-family="FreeSans" xml:space="preserve">
    <tspan x="0 6 11 13 15 20 25 27 33 38 40 45 50 53 58 61 66 " y="-2" fill="rgb(0,0,0)">Spline C2 natural</tspan>
   </text>
   <polyline stroke-linecap="round" stroke-linejoin="round" stroke-width="0.5" fill="none" stroke="#d85218" points="72.4674,164.385 71.8945,166.149 70.3945,167.239 68.5404,167.239 67.0404,166.149 66.4674,164.385 67.0404,162.622 68.5404,161.532 70.3945,161.532 71.8945,162.622 72.4674,164.385"/>
   <text font-style="normal" font-weight="normal" transform="translate(90.1152,169.385) rotate(-0,-0,-5)" font-size="9" font-family="FreeSans" xml:space="preserve">
    <tspan x="0 6 11 16 21 24 27 32 34 36 38 43 46 51 54 59 64 66 71 74 76 " y="-2" fill="rgb(0,0,0)">Suportul interpolarii</tspan>
   </text>
  </g>
 </g>
</svg>
