<?xml version='1.0' encoding='UTF-8' standalone='no'?>
<svg height="211pt" xmlns="http://www.w3.org/2000/svg" xmlns:xlink="http://www.w3.org/1999/xlink" width="284pt" viewBox="0 0 284 211">
 <title>gl2ps_renderer figure</title>
 <desc>
Creator: GL2PS 1.4.2, (C) 1999-2020 C. Geuzaine
For: Octave
CreationDate: Wed Aug 18 14:29:01 2021
</desc>
 <defs/>
 <polygon points="0,0 284,0 284,211 0,211" fill="#ffffff"/>
 <g>
  <polygon points="0,211 284,211 284,0 0,0" fill="#ffffff" shape-rendering="crispEdges"/>
  <clipPath id="cp00284211">
   <polygon points="0,211 284,211 284,0 0,0"/>
  </clipPath>
  <g clip-path="url(#cp00284211)">
   <polygon points="37.0209,188.278 257.723,188.278 257.723,15.8661 37.0209,15.8661" fill="#ffffff" shape-rendering="crispEdges"/>
   <polyline stroke-linecap="butt" points="37.0209,188.278 37.0209,186.066" fill="none" stroke="#262626" stroke-width="0.5" stroke-linejoin="miter"/>
   <polyline stroke-linecap="butt" points="37.0209,15.8661 37.0209,18.0784" fill="none" stroke="#262626" stroke-width="0.5" stroke-linejoin="miter"/>
   <polyline stroke-linecap="butt" points="92.1964,188.278 92.1964,186.066" fill="none" stroke="#262626" stroke-width="0.5" stroke-linejoin="miter"/>
   <polyline stroke-linecap="butt" points="92.1964,15.8661 92.1964,18.0784" fill="none" stroke="#262626" stroke-width="0.5" stroke-linejoin="miter"/>
   <polyline stroke-linecap="butt" points="147.372,188.278 147.372,186.066" fill="none" stroke="#262626" stroke-width="0.5" stroke-linejoin="miter"/>
   <polyline stroke-linecap="butt" points="147.372,15.8661 147.372,18.0784" fill="none" stroke="#262626" stroke-width="0.5" stroke-linejoin="miter"/>
   <polyline stroke-linecap="butt" points="202.547,188.278 202.547,186.066" fill="none" stroke="#262626" stroke-width="0.5" stroke-linejoin="miter"/>
   <polyline stroke-linecap="butt" points="202.547,15.8661 202.547,18.0784" fill="none" stroke="#262626" stroke-width="0.5" stroke-linejoin="miter"/>
   <polyline stroke-linecap="butt" points="257.723,188.278 257.723,186.066" fill="none" stroke="#262626" stroke-width="0.5" stroke-linejoin="miter"/>
   <polyline stroke-linecap="butt" points="257.723,15.8661 257.723,18.0784" fill="none" stroke="#262626" stroke-width="0.5" stroke-linejoin="miter"/>
   <text font-family="FreeSans" font-weight="normal" font-style="normal" xml:space="preserve" font-size="10" transform="translate(32.5209,203.796) rotate(-0,4.5,-8)">
    <tspan x="0 3 " y="-0" fill="rgb(38,38,38)">-5</tspan>
   </text>
   <text font-family="FreeSans" font-weight="normal" font-style="normal" xml:space="preserve" font-size="10" transform="translate(89.1964,203.796) rotate(-0,3,-8)">
    <tspan x="0 " y="-0" fill="rgb(38,38,38)">0</tspan>
   </text>
   <text font-family="FreeSans" font-weight="normal" font-style="normal" xml:space="preserve" font-size="10" transform="translate(144.372,203.796) rotate(-0,3,-8)">
    <tspan x="0 " y="-0" fill="rgb(38,38,38)">5</tspan>
   </text>
   <text font-family="FreeSans" font-weight="normal" font-style="normal" xml:space="preserve" font-size="10" transform="translate(196.547,203.796) rotate(-0,6,-8)">
    <tspan x="0 6 " y="-0" fill="rgb(38,38,38)">10</tspan>
   </text>
   <text font-family="FreeSans" font-weight="normal" font-style="normal" xml:space="preserve" font-size="10" transform="translate(251.723,203.796) rotate(-0,6,-8)">
    <tspan x="0 6 " y="-0" fill="rgb(38,38,38)">15</tspan>
   </text>
   <polyline stroke-linecap="butt" points="37.0209,188.278 39.225,188.278" fill="none" stroke="#262626" stroke-width="0.5" stroke-linejoin="miter"/>
   <polyline stroke-linecap="butt" points="257.723,188.278 255.519,188.278" fill="none" stroke="#262626" stroke-width="0.5" stroke-linejoin="miter"/>
   <polyline stroke-linecap="butt" points="37.0209,159.543 39.225,159.543" fill="none" stroke="#262626" stroke-width="0.5" stroke-linejoin="miter"/>
   <polyline stroke-linecap="butt" points="257.723,159.543 255.519,159.543" fill="none" stroke="#262626" stroke-width="0.5" stroke-linejoin="miter"/>
   <polyline stroke-linecap="butt" points="37.0209,130.807 39.225,130.807" fill="none" stroke="#262626" stroke-width="0.5" stroke-linejoin="miter"/>
   <polyline stroke-linecap="butt" points="257.723,130.807 255.519,130.807" fill="none" stroke="#262626" stroke-width="0.5" stroke-linejoin="miter"/>
   <polyline stroke-linecap="butt" points="37.0209,102.072 39.225,102.072" fill="none" stroke="#262626" stroke-width="0.5" stroke-linejoin="miter"/>
   <polyline stroke-linecap="butt" points="257.723,102.072 255.519,102.072" fill="none" stroke="#262626" stroke-width="0.5" stroke-linejoin="miter"/>
   <polyline stroke-linecap="butt" points="37.0209,73.3367 39.225,73.3367" fill="none" stroke="#262626" stroke-width="0.5" stroke-linejoin="miter"/>
   <polyline stroke-linecap="butt" points="257.723,73.3367 255.519,73.3367" fill="none" stroke="#262626" stroke-width="0.5" stroke-linejoin="miter"/>
   <polyline stroke-linecap="butt" points="37.0209,44.6014 39.225,44.6014" fill="none" stroke="#262626" stroke-width="0.5" stroke-linejoin="miter"/>
   <polyline stroke-linecap="butt" points="257.723,44.6014 255.519,44.6014" fill="none" stroke="#262626" stroke-width="0.5" stroke-linejoin="miter"/>
   <polyline stroke-linecap="butt" points="37.0209,15.8661 39.225,15.8661" fill="none" stroke="#262626" stroke-width="0.5" stroke-linejoin="miter"/>
   <polyline stroke-linecap="butt" points="257.723,15.8661 255.519,15.8661" fill="none" stroke="#262626" stroke-width="0.5" stroke-linejoin="miter"/>
   <text font-family="FreeSans" font-weight="normal" font-style="normal" xml:space="preserve" font-size="10" transform="translate(17.0277,192.278) rotate(-0,15,-4)">
    <tspan x="0 3 9 " y="-0" fill="rgb(38,38,38)">-15</tspan>
   </text>
   <text font-family="FreeSans" font-weight="normal" font-style="normal" xml:space="preserve" font-size="10" transform="translate(17.0277,163.543) rotate(-0,15,-4)">
    <tspan x="0 3 9 " y="-0" fill="rgb(38,38,38)">-10</tspan>
   </text>
   <text font-family="FreeSans" font-weight="normal" font-style="normal" xml:space="preserve" font-size="10" transform="translate(23.0277,134.807) rotate(-0,9,-4)">
    <tspan x="0 3 " y="-0" fill="rgb(38,38,38)">-5</tspan>
   </text>
   <text font-family="FreeSans" font-weight="normal" font-style="normal" xml:space="preserve" font-size="10" transform="translate(26.0277,106.072) rotate(-0,6,-4)">
    <tspan x="0 " y="-0" fill="rgb(38,38,38)">0</tspan>
   </text>
   <text font-family="FreeSans" font-weight="normal" font-style="normal" xml:space="preserve" font-size="10" transform="translate(26.0277,77.3367) rotate(-0,6,-4)">
    <tspan x="0 " y="-0" fill="rgb(38,38,38)">5</tspan>
   </text>
   <text font-family="FreeSans" font-weight="normal" font-style="normal" xml:space="preserve" font-size="10" transform="translate(20.0277,48.6014) rotate(-0,12,-4)">
    <tspan x="0 6 " y="-0" fill="rgb(38,38,38)">10</tspan>
   </text>
   <text font-family="FreeSans" font-weight="normal" font-style="normal" xml:space="preserve" font-size="10" transform="translate(20.0277,19.8661) rotate(-0,12,-4)">
    <tspan x="0 6 " y="-0" fill="rgb(38,38,38)">15</tspan>
   </text>
   <polyline stroke-linecap="square" points="37.0209,188.278 257.723,188.278" fill="none" stroke="#262626" stroke-width="0.5" stroke-dasharray="16,0" stroke-linejoin="miter"/>
   <polyline stroke-linecap="square" points="37.0209,15.8661 257.723,15.8661" fill="none" stroke="#262626" stroke-width="0.5" stroke-dasharray="16,0" stroke-linejoin="miter"/>
   <polyline stroke-linecap="square" points="37.0209,188.278 37.0209,15.8661" fill="none" stroke="#262626" stroke-width="0.5" stroke-dasharray="16,0" stroke-linejoin="miter"/>
   <polyline stroke-linecap="square" points="257.723,188.278 257.723,15.8661" fill="none" stroke="#262626" stroke-width="0.5" stroke-dasharray="16,0" stroke-linejoin="miter"/>
   <polyline stroke-linecap="butt" points="59.0911,73.3367 60.986,90.3917 62.8809,104.202 64.7758,115.152 66.6708,123.6 68.5657,129.87 70.4606,134.262 72.3555,137.05 74.2504,138.482 76.1453,138.783 78.0402,138.156 79.9352,136.783 81.8301,134.827 83.725,132.43 85.6199,129.721 87.5148,126.808 89.4097,123.786 91.3046,120.738 93.1995,117.729 95.0945,114.817 96.9894,112.045 98.8843,109.448 100.779,107.052 102.674,104.872 104.569,102.917 106.464,101.191 108.359,99.6895 110.254,98.4032 112.149,97.319 114.044,96.4195 115.939,95.6844 117.833,95.0905 119.728,94.6129 121.623,94.2252 123.518,93.9002 125.413,93.6103 127.308,93.328 129.203,93.0264 131.098,92.6796 132.993,92.2628 134.888,91.7533 136.783,91.13 138.677,90.3744 140.572,89.4703 142.467,88.4046 144.362,87.1668 146.257,85.7498 148.152,84.1497 150.047,82.3659 151.942,80.4014 153.837,78.2626 155.732,75.9594 157.627,73.505 159.522,70.9164 161.416,68.2137 163.311,65.4201 165.206,62.5622 167.101,59.6694 168.996,56.7736 170.891,53.9095 172.786,51.1137 174.681,48.425 176.576,45.8834 178.471,43.5305 180.366,41.4086 182.261,39.5603 184.155,38.0282 186.05,36.8544 187.945,36.08 189.84,35.7445 191.735,35.8852 193.63,36.5367 195.525,37.7301 197.42,39.4925 199.315,41.8462 201.21,44.8081 203.105,48.3888 204.999,52.5918 206.894,57.4127 208.789,62.8387 210.684,68.847 212.579,75.4045 214.474,82.4667 216.369,89.9764 218.264,97.8634 220.159,106.043 222.054,114.414 223.949,122.859 225.844,131.245 227.738,139.417 229.633,147.201 231.528,154.402 233.423,160.803 235.318,166.161 237.213,170.21 239.108,172.656 241.003,173.178 242.898,171.427 244.793,167.019 246.688,159.543" fill="none" stroke="#0071bc" stroke-width="0.5" stroke-linejoin="round"/>
   <polyline stroke-linecap="round" points="62.0911,73.3367 61.5182,75.1001 60.0182,76.1899 58.1641,76.1899 56.6641,75.1001 56.0911,73.3367 56.6641,71.5733 58.1641,70.4835 60.0182,70.4835 61.5182,71.5733 62.0911,73.3367" fill="none" stroke="#d85218" stroke-width="0.5" stroke-linejoin="round"/>
   <polyline stroke-linecap="round" points="95.1964,119.313 94.6234,121.077 93.1234,122.166 91.2693,122.166 89.7693,121.077 89.1964,119.313 89.7693,117.55 91.2693,116.46 93.1234,116.46 94.6234,117.55 95.1964,119.313" fill="none" stroke="#d85218" stroke-width="0.5" stroke-linejoin="round"/>
   <polyline stroke-linecap="round" points="117.267,96.325 116.694,98.0883 115.194,99.1781 113.339,99.1781 111.839,98.0883 111.267,96.325 111.839,94.5616 113.339,93.4718 115.194,93.4718 116.694,94.5616 117.267,96.325" fill="none" stroke="#d85218" stroke-width="0.5" stroke-linejoin="round"/>
   <polyline stroke-linecap="round" points="150.372,84.8308 149.799,86.5942 148.299,87.684 146.445,87.684 144.945,86.5942 144.372,84.8308 144.945,83.0675 146.445,81.9777 148.299,81.9777 149.799,83.0675 150.372,84.8308" fill="none" stroke="#d85218" stroke-width="0.5" stroke-linejoin="round"/>
   <polyline stroke-linecap="round" points="172.442,56.0955 171.869,57.8589 170.369,58.9487 168.515,58.9487 167.015,57.8589 166.442,56.0955 167.015,54.3322 168.515,53.2424 170.369,53.2424 171.869,54.3322 172.442,56.0955" fill="none" stroke="#d85218" stroke-width="0.5" stroke-linejoin="round"/>
   <polyline stroke-linecap="round" points="216.582,79.0838 216.009,80.8471 214.509,81.937 212.655,81.937 211.155,80.8471 210.582,79.0838 211.155,77.3204 212.655,76.2306 214.509,76.2306 216.009,77.3204 216.582,79.0838" fill="none" stroke="#d85218" stroke-width="0.5" stroke-linejoin="round"/>
   <polyline stroke-linecap="round" points="249.688,159.543 249.115,161.306 247.615,162.396 245.761,162.396 244.261,161.306 243.688,159.543 244.261,157.779 245.761,156.689 247.615,156.689 249.115,157.779 249.688,159.543" fill="none" stroke="#d85218" stroke-width="0.5" stroke-linejoin="round"/>
  </g>
  <clipPath id="cp00284211">
   <polygon points="0,211 284,211 284,0 0,0"/>
  </clipPath>
  <g clip-path="url(#cp00284211)">
   <polygon points="48.8197,70.1403 174.015,70.1403 174.015,27.6648 48.8197,27.6648" fill="#ffffff" shape-rendering="crispEdges"/>
   <polyline stroke-linecap="square" points="48.8197,70.1403 174.015,70.1403" fill="none" stroke="#262626" stroke-width="0.5" stroke-dasharray="16,0" stroke-linejoin="miter"/>
   <polyline stroke-linecap="square" points="48.8197,27.6648 174.015,27.6648" fill="none" stroke="#262626" stroke-width="0.5" stroke-dasharray="16,0" stroke-linejoin="miter"/>
   <polyline stroke-linecap="square" points="48.8197,70.1403 48.8197,27.6648" fill="none" stroke="#262626" stroke-width="0.5" stroke-dasharray="16,0" stroke-linejoin="miter"/>
   <polyline stroke-linecap="square" points="174.015,70.1403 174.015,27.6648" fill="none" stroke="#262626" stroke-width="0.5" stroke-dasharray="16,0" stroke-linejoin="miter"/>
   <polyline stroke-linecap="butt" points="54.719,39.7585 84.2158,39.7585" fill="none" stroke="#0071bc" stroke-width="0.5" stroke-linejoin="round"/>
   <text font-family="FreeSans" font-weight="normal" font-style="normal" xml:space="preserve" font-size="9" transform="translate(90.1152,44.2585) rotate(-0,-0,-4.5)">
    <tspan x="0 6 11 16 21 26 29 36 41 46 51 " y="-1" fill="rgb(0,0,0)">Vandermonde</tspan>
   </text>
   <polyline stroke-linecap="round" points="72.4674,58.0466 71.8945,59.8099 70.3945,60.8997 68.5404,60.8997 67.0404,59.8099 66.4674,58.0466 67.0404,56.2832 68.5404,55.1934 70.3945,55.1934 71.8945,56.2832 72.4674,58.0466" fill="none" stroke="#d85218" stroke-width="0.5" stroke-linejoin="round"/>
   <text font-family="FreeSans" font-weight="normal" font-style="normal" xml:space="preserve" font-size="9" transform="translate(90.1152,63.0466) rotate(-0,-0,-5)">
    <tspan x="0 6 11 16 21 24 27 32 34 36 38 43 46 51 54 59 64 66 71 74 76 " y="-2" fill="rgb(0,0,0)">Suportul interpolarii</tspan>
   </text>
  </g>
 </g>
</svg>
